:FULLY-SPECIFIED
:FORCE-ALL-JOINTS-BE-3DOF
:DEGREES
714
root -9.24077 14.2635 -38.4754 141.777 -67.7495 -141.074
lfemur -52.9381 20.9223 5.64425
ltibia 62.8523 -0 0
lfoot 1.90327 -2.6455 0.592098
ltoes -2.82764 0 0
rfemur 0.263392 -9.67106 14.1501
rtibia 52.6632 -0 0
rfoot -26.9537 -29.1187 0.0034726
rtoes -18.0775 0 0
lowerback 14.8969 1.58607 7.48944
upperback -0.618642 3.63325 4.84351
thorax -8.92573 1.42468 0.209272
lowerneck -4.48164 5.74732 0.462611
upperneck 3.85728 7.62078 0.596659
head 2.01465 3.8132 0.342893
lclavicle -3.17834e-14 2.05219e-14 -3.43383e-31
lhumerus 50.403 17.4112 100.092
lradius 28.1168 -0 0
lwrist -70.41 0 0
lhand -30.585 39.45 0.0818571
lfingers 7.12502 -0 0
lthumb -3.88237 69.3841 0.079028
rclavicle -3.17834e-14 2.05219e-14 -3.43383e-31
rhumerus -71.607 24.3184 -96.4979
rradius 118.259 -0 0
rwrist -64.295 0 0
rhand -10.075 -42.9413 2.55109
rfingers 7.12502 -0 0
rthumb 15.6273 -70.9703 3.11889
715
root -9.19163 14.2684 -38.4785 141.336 -68.0597 -140.609
lfemur -52.8013 20.9057 5.69939
ltibia 62.7215 -0 0
lfoot 2.01392 -2.48639 0.611714
ltoes -2.85341 0 0
rfemur 0.0928482 -9.73306 14.1288
rtibia 52.7573 -0 0
rfoot -26.9424 -29.1089 0.00358526
rtoes -18.09 0 0
lowerback 14.9057 1.59298 7.45842
upperback -0.623283 3.63772 4.82317
thorax -8.93614 1.42809 0.203059
lowerneck -4.48639 5.77437 0.489808
upperneck 3.86235 7.6577 0.550288
head 2.02203 3.83062 0.325593
lclavicle -3.18692e-14 2.03931e-14 -3.64803e-31
lhumerus 49.8687 17.2494 99.639
lradius 28.7467 -0 0
lwrist -69.807 0 0
lhand -30.5303 39.5251 0.0844329
lfingers 7.12502 -0 0
lthumb -3.82958 69.4598 0.0815062
rclavicle -3.18692e-14 2.03931e-14 -3.64803e-31
rhumerus -71.4266 24.5259 -96.5143
rradius 118.241 -0 0
rwrist -63.8942 0 0
rhand -9.74296 -42.6812 2.63423
rfingers 7.12502 -0 0
rthumb 15.9389 -70.6344 3.22079
716
root -9.14195 14.2734 -38.4817 140.878 -68.3719 -140.126
lfemur -52.6629 20.8887 5.75508
ltibia 62.5891 -0 0
lfoot 2.12594 -2.32541 0.631234
ltoes -2.87947 0 0
rfemur -0.0796221 -9.79579 14.1074
rtibia 52.8526 -0 0
rfoot -26.931 -29.0989 0.00369736
rtoes -18.1025 0 0
lowerback 14.9146 1.59998 7.42701
upperback -0.627967 3.64223 4.8026
thorax -8.94667 1.43152 0.196804
lowerneck -4.49123 5.80171 0.517262
upperneck 3.86749 7.69501 0.50343
head 2.0295 3.84823 0.308121
lclavicle -3.19567e-14 2.026e-14 -3.86524e-31
lhumerus 49.3303 17.0815 99.1824
lradius 29.3837 -0 0
lwrist -69.1964 0 0
lhand -30.4751 39.6008 0.0869774
lfingers 7.12502 -0 0
lthumb -3.77631 69.5362 0.0839536
rclavicle -3.19567e-14 2.026e-14 -3.86524e-31
rhumerus -71.2441 24.7359 -96.5302
rradius 118.222 -0 0
rwrist -63.4888 0 0
rhand -9.40844 -42.418 2.71692
rfingers 7.12502 -0 0
rthumb 16.2531 -70.2943 3.32216
717
root -9.09174 14.2784 -38.485 140.4 -68.6859 -139.623
lfemur -52.5231 20.8713 5.81131
ltibia 62.4553 -0 0
lfoot 2.23932 -2.16261 0.650643
ltoes -2.90582 0 0
rfemur -0.253981 -9.85923 14.0861
rtibia 52.949 -0 0
rfoot -26.9195 -29.0889 0.00380881
rtoes -18.1151 0 0
lowerback 14.9237 1.60705 7.39523
upperback -0.632692 3.64678 4.78182
thorax -8.95732 1.435 0.190508
lowerneck -4.49613 5.82934 0.544965
upperneck 3.87268 7.73272 0.456094
head 2.03707 3.86603 0.29048
lclavicle -3.20458e-14 2.01227e-14 -4.08512e-31
lhumerus 48.7882 16.9074 98.7227
lradius 30.0274 -0 0
lwrist -68.5785 0 0
lhand -30.4195 39.6771 0.0894878
lfingers 7.12502 -0 0
lthumb -3.72257 69.6132 0.0863674
rclavicle -3.20458e-14 2.01227e-14 -4.08512e-31
rhumerus -71.0595 24.9482 -96.5459
rradius 118.203 -0 0
rwrist -63.0789 0 0
rhand -9.07148 -42.1517 2.79911
rfingers 7.12502 -0 0
rthumb 16.5697 -69.9502 3.42291
718
root -9.041 14.2835 -38.4882 139.904 -69.0016 -139.102
lfemur -52.3818 20.8535 5.86806
ltibia 62.3199 -0 0
lfoot 2.35402 -1.99802 0.669924
ltoes -2.93246 0 0
rfemur -0.430192 -9.92339 14.0647
rtibia 53.0464 -0 0
rfoot -26.9079 -29.0788 0.00391952
rtoes -18.1277 0 0
lowerback 14.9328 1.61421 7.36308
upperback -0.637459 3.65138 4.76082
thorax -8.96809 1.43851 0.184171
lowerneck -4.5011 5.85725 0.572913
upperneck 3.87792 7.77082 0.408291
head 2.04472 3.88401 0.272674
lclavicle -3.21367e-14 1.99812e-14 -4.30738e-31
lhumerus 48.2425 16.7271 98.2602
lradius 30.6778 -0 0
lwrist -67.9535 0 0
lhand -30.3634 39.754 0.0919615
lfingers 7.12502 -0 0
lthumb -3.66837 69.6908 0.0887451
rclavicle -3.21367e-14 1.99812e-14 -4.30738e-31
rhumerus -70.8729 25.1628 -96.5611
rradius 118.184 -0 0
rwrist -62.6646 0 0
rhand -8.73213 -41.8823 2.88073
rfingers 7.12502 -0 0
rthumb 16.8888 -69.602 3.52296
